<?xml version="1.0" encoding="UTF-8" standalone="no"?>
<svg
   fill="none"
   viewBox="0 0 128 128"
   version="1.1"
   id="svg1"
   sodipodi:docname="favicon.svg"
   xml:space="preserve"
   inkscape:version="1.3 (0e150ed6c4, 2023-07-21)"
   xmlns:inkscape="http://www.inkscape.org/namespaces/inkscape"
   xmlns:sodipodi="http://sodipodi.sourceforge.net/DTD/sodipodi-0.dtd"
   xmlns="http://www.w3.org/2000/svg"
   xmlns:svg="http://www.w3.org/2000/svg"><defs
     id="defs1" /><sodipodi:namedview
     id="namedview1"
     pagecolor="#ffffff"
     bordercolor="#000000"
     borderopacity="0.25"
     inkscape:showpageshadow="2"
     inkscape:pageopacity="0.0"
     inkscape:pagecheckerboard="0"
     inkscape:deskcolor="#d1d1d1"
     inkscape:zoom="2.7734375"
     inkscape:cx="70.309859"
     inkscape:cy="64"
     inkscape:window-width="1366"
     inkscape:window-height="745"
     inkscape:window-x="-8"
     inkscape:window-y="-8"
     inkscape:window-maximized="1"
     inkscape:current-layer="svg1" /><style
     id="style1">&#10;        path { fill: #000; }&#10;        @media (prefers-color-scheme: dark) {&#10;            path { fill: #FFF; }&#10;        }&#10;    </style><g
     id="g2"
     transform="matrix(0.66357368,0,0,0.66357368,20.802693,27.964968)"
     style="stroke-width:4.10673;stroke-dasharray:none"><text
       xml:space="preserve"
       style="font-style:normal;font-variant:normal;font-weight:normal;font-stretch:normal;font-size:85.3333px;line-height:390.539px;font-family:'Fashion Script';-inkscape-font-specification:'Fashion Script';letter-spacing:0px;word-spacing:0px;text-orientation:upright;fill:#000000;stroke:#000000;stroke-width:4.10673;stroke-linejoin:round;stroke-dasharray:none;paint-order:stroke fill markers"
       x="49.397182"
       y="87.977463"
       id="text1"><tspan
         sodipodi:role="line"
         id="tspan1"
         x="49.397182"
         y="87.977463">D</tspan></text><text
       xml:space="preserve"
       style="font-style:normal;font-variant:normal;font-weight:normal;font-stretch:normal;font-size:85.3333px;line-height:390.539px;font-family:'Fashion Script';-inkscape-font-specification:'Fashion Script';letter-spacing:0px;word-spacing:0px;text-orientation:upright;fill:#000000;stroke:#000000;stroke-width:4.10673;stroke-linejoin:round;stroke-dasharray:none;paint-order:stroke fill markers"
       x="20.552113"
       y="66.704224"
       id="text2"><tspan
         sodipodi:role="line"
         id="tspan2"
         x="20.552113"
         y="66.704224">J</tspan></text></g><path
     style="fill:#000000;stroke-width:0.822786"
     d="m 38.62397,107.89404 c -2.17557,-0.85004 -5.205459,-2.49888 -6.733093,-3.66405 -1.986137,-1.5149 -3.78949,-2.12081 -6.329257,-2.12655 -1.982925,-0.005 -5.36888,-0.85667 -7.665674,-1.9293 -4.124965,-1.926411 -9.4620452,-5.902274 -9.4620452,-7.048746 0,-1.064402 8.9966072,0.559504 12.3836112,2.235261 3.689485,1.825414 3.8553,1.694624 1.711707,-1.350036 -0.845695,-1.201194 -1.798276,-3.023343 -2.116848,-4.049227 -0.337083,-1.085503 -1.84403,-2.392137 -3.60479,-3.125627 C 12.748489,85.144849 7.9091644,80.345148 5.48306,75.603956 4.3908263,73.469471 3.4971808,71.518112 3.4971808,71.267604 c 0,-1.236358 7.1505752,3.424647 10.4687102,6.82389 2.073261,2.123942 3.527186,3.181395 3.230944,2.349903 -0.296243,-0.831491 -0.775808,-3.053014 -1.0657,-4.936721 C 15.752602,73.044975 14.611193,71.006963 12.08102,68.2731 8.4621826,64.362928 5.9655408,58.219852 5.9655408,53.225744 v -2.511006 l 2.9030408,2.90304 c 1.5966724,1.596672 3.7484944,4.983233 4.7818254,7.525691 l 1.878787,4.62265 0.929045,-5.423725 c 0.824588,-4.813912 0.763643,-5.661601 -0.542048,-7.539405 -0.809099,-1.163623 -1.897975,-3.374254 -2.419724,-4.912513 -1.079038,-3.181304 -1.172357,-12.014796 -0.152989,-14.481683 0.590314,-1.42857 0.915871,-1.124311 2.468755,2.307253 0.983827,2.174055 2.202595,6.17804 2.708377,8.897746 l 0.919603,4.944921 1.264128,-2.315453 c 0.824523,-1.510248 1.279373,-4.604471 1.307968,-8.897748 0.0357,-5.359597 0.456475,-7.472207 2.265218,-11.373092 1.237912,-2.669785 2.59368,-4.560701 3.062313,-4.271071 1.038455,0.641801 1.063186,7.111169 0.04398,11.507133 -0.41673,1.797423 -0.684172,3.341564 -0.594316,3.431421 0.08986,0.08986 2.198358,-1.711388 4.685557,-4.002766 5.090782,-4.689976 9.586857,-6.98911 15.161886,-7.753253 3.285716,-0.450356 3.726252,-0.340649 3.281899,0.817313 -0.84501,2.202061 -9.336949,6.991054 -14.260619,8.042217 -4.469256,0.95415 -8.328016,3.520857 -10.040925,6.678864 -0.573131,1.056655 0.503658,0.733673 4.114643,-1.23418 2.690008,-1.465954 5.149974,-2.407007 5.466599,-2.091228 1.027331,1.024602 -2.913013,7.881917 -6.2738,10.918186 -1.800592,1.626728 -4.898751,3.747146 -6.884795,4.712041 -4.119416,2.001366 -4.419192,2.708297 -4.991263,11.770371 L 16.633158,72.079761 18.12995,67.905 c 2.421712,-6.754484 7.575543,-14.65973 8.753549,-13.426701 0.169693,0.17762 -0.0072,2.299651 -0.393241,4.715625 -0.853797,5.344241 -3.211642,10.355431 -6.525916,13.869697 -1.363887,1.446189 -2.479796,3.185786 -2.479796,3.865762 0,1.766341 4.04846,14.348854 4.756444,14.782915 0.325419,0.199509 0.627017,-2.099792 0.670219,-5.10957 0.08067,-5.620118 3.048944,-14.902797 4.964628,-15.52588 1.452558,-0.472448 2.144849,7.812462 1.081187,12.938989 -0.515763,2.485812 -1.64192,5.744145 -2.502572,7.240745 -0.860655,1.496594 -1.564826,3.226072 -1.564826,3.843273 0,1.225131 7.087923,8.657195 8.256324,8.657195 0.396732,0 0.182376,-1.52757 -0.476349,-3.39459 -1.28159,-3.632427 -1.523566,-13.226788 -0.402038,-15.940898 0.590034,-1.42789 0.917616,-1.120406 2.476354,2.32443 2.234202,4.937624 3.013463,11.850134 1.745821,15.486498 -0.825288,2.36743 -0.755531,2.88934 0.50989,3.8149 0.806289,0.58975 2.391609,1.26772 3.522941,1.50662 1.131331,0.23889 2.797475,0.75314 3.70254,1.14276 l 1.645572,0.7084 -1.645572,0.0172 c -0.905065,0.01 -3.425582,-0.67829 -5.601146,-1.52835 z m 50.031619,-0.29106 c 4.486889,-1.65028 4.899227,-2.00194 4.525323,-3.85932 -1.015114,-5.042544 -0.292198,-12.800635 1.570463,-16.853739 1.636407,-3.560773 1.982048,-3.892669 2.570606,-2.468359 1.121528,2.71411 0.879558,12.308471 -0.402031,15.940898 -0.658732,1.86702 -0.873086,3.39459 -0.476358,3.39459 1.209667,0 8.256338,-7.453647 8.256338,-8.733167 0,-0.658999 -0.53655,-2.018223 -1.19232,-3.020496 -2.26047,-3.454827 -3.84383,-11.401588 -3.28095,-16.466868 0.33655,-3.028423 0.87468,-4.659034 1.47326,-4.46427 1.92755,0.627166 4.8975,9.892096 4.97843,15.530479 0.0432,3.009778 0.3448,5.309079 0.67023,5.10957 0.76105,-0.466602 4.76369,-13.102967 4.73357,-14.943984 -0.0126,-0.768573 -1.11722,-2.471196 -2.45475,-3.783605 -1.33756,-1.31241 -3.16246,-3.904187 -4.05535,-5.759506 -1.76022,-3.657551 -3.50136,-12.835353 -2.435,-12.835353 1.63176,0 6.57006,8.191984 8.63825,14.329742 1.10868,3.290247 1.12411,3.223197 0.74115,-3.222124 -0.53618,-9.023971 -0.84753,-9.769058 -4.90622,-11.740916 -6.24113,-3.032177 -11.551795,-8.671558 -13.15677,-13.971163 -0.797794,-2.634317 0.813856,-2.387296 6.40989,0.982461 4.64891,2.799429 4.68665,2.806898 3.11749,0.617089 -2.84446,-3.969534 -5.371485,-5.639123 -10.049532,-6.639702 -4.924915,-1.053384 -13.415966,-5.842967 -14.260599,-8.04404 -0.444353,-1.157962 -0.0042,-1.267669 3.281891,-0.817313 5.743134,0.787184 10.556905,3.266748 15.717434,8.096011 2.740326,2.564417 4.409826,3.686674 4.046396,2.720044 -0.34028,-0.905065 -0.82317,-4.277485 -1.07311,-7.494266 -0.60707,-7.813181 0.71118,-8.617344 3.66091,-2.233253 1.78588,3.86517 2.22735,6.062564 2.28494,11.373092 0.0465,4.281012 0.51239,7.359961 1.33275,8.806635 l 1.26132,2.224344 0.92559,-4.977106 c 0.50908,-2.737407 1.74672,-6.673337 2.75034,-8.746509 1.54763,-3.197003 1.91905,-3.528646 2.44582,-2.183956 0.96886,2.473196 0.83882,11.323766 -0.21189,14.421556 -0.52174,1.538259 -1.61062,3.74889 -2.41973,4.912513 -1.30568,1.877804 -1.36663,2.725493 -0.54205,7.539405 l 0.92906,5.423725 1.87877,-4.62265 c 1.03335,-2.542458 3.22874,-5.93519 4.87866,-7.539404 l 2.99986,-2.916755 -0.46935,4.318817 c -0.60833,5.597566 -2.89635,10.595967 -6.49728,14.193881 -1.9085,1.906916 -3.07283,3.991568 -3.44657,6.170899 -0.31042,1.810133 -0.77351,4.031657 -1.02908,4.936722 -0.29863,1.057503 0.87233,0.26553 3.27658,-2.216135 3.28709,-3.392914 10.44041,-8.068348 10.44041,-6.82389 0,0.250508 -0.89387,2.219444 -1.98638,4.375417 -2.45478,4.844255 -6.46996,8.930394 -10.65995,10.848309 -2.33013,1.06658 -3.81993,2.619901 -5.55382,5.790558 -1.30324,2.383148 -2.36951,4.412502 -2.36951,4.509701 0,0.0972 1.4622,-0.546732 3.24933,-1.430934 3.38701,-1.675757 12.38361,-3.299663 12.38361,-2.235261 0,1.146472 -5.33707,5.122335 -9.46204,7.048746 -2.2968,1.07263 -5.68275,1.92481 -7.66567,1.9293 -2.53935,0.006 -4.343104,0.61162 -6.327999,2.12557 -3.011089,2.29667 -10.247564,5.31732 -12.550025,5.23862 -0.787079,-0.0268 0.790467,-0.86599 3.505663,-1.86465 z"
     id="path2" /></svg>
